<svg width="255" height="420" viewBox="0 0 255 420" fill="none" xmlns="http://www.w3.org/2000/svg">
<rect width="255" height="420" fill="#D9D9D9"/>
<g filter="url(#filter0_d_26_9)">
<path d="M106.071 192.188V189.523L112.751 179H115.048V182.687H113.688L109.478 189.352V189.477H118.97V192.188H106.071ZM113.751 195V191.375L113.813 190.195V179H116.985V195H113.751ZM127.497 195.352C126.153 195.346 124.997 195.016 124.028 194.359C123.065 193.703 122.323 192.753 121.802 191.508C121.286 190.263 121.031 188.766 121.036 187.016C121.036 185.271 121.294 183.784 121.81 182.555C122.33 181.326 123.073 180.391 124.036 179.75C125.005 179.104 126.159 178.781 127.497 178.781C128.836 178.781 129.987 179.104 130.95 179.75C131.919 180.396 132.664 181.333 133.185 182.562C133.705 183.786 133.963 185.271 133.958 187.016C133.958 188.771 133.698 190.271 133.177 191.516C132.661 192.76 131.922 193.711 130.958 194.367C129.994 195.023 128.841 195.352 127.497 195.352ZM127.497 192.547C128.414 192.547 129.146 192.086 129.692 191.164C130.239 190.242 130.51 188.859 130.505 187.016C130.505 185.802 130.38 184.792 130.13 183.984C129.885 183.177 129.536 182.57 129.083 182.164C128.635 181.758 128.106 181.555 127.497 181.555C126.586 181.555 125.856 182.01 125.31 182.922C124.763 183.833 124.487 185.198 124.481 187.016C124.481 188.245 124.604 189.271 124.849 190.094C125.099 190.911 125.45 191.526 125.903 191.937C126.356 192.344 126.888 192.547 127.497 192.547ZM136.128 192.188V189.523L142.808 179H145.104V182.687H143.745L139.534 189.352V189.477H149.026V192.188H136.128ZM143.808 195V191.375L143.87 190.195V179H147.042V195H143.808ZM102.186 222V206H112.967V208.789H105.568V212.602H112.412V215.391H105.568V219.211H112.998V222H102.186ZM115.594 222V210H118.82V212.094H118.945C119.164 211.349 119.531 210.786 120.047 210.406C120.563 210.021 121.156 209.828 121.828 209.828C121.995 209.828 122.174 209.839 122.367 209.859C122.56 209.88 122.729 209.909 122.875 209.945V212.898C122.719 212.852 122.503 212.81 122.227 212.773C121.951 212.737 121.698 212.719 121.469 212.719C120.979 212.719 120.542 212.826 120.156 213.039C119.776 213.247 119.474 213.539 119.25 213.914C119.031 214.289 118.922 214.721 118.922 215.211V222H115.594ZM124.596 222V210H127.822V212.094H127.947C128.166 211.349 128.533 210.786 129.049 210.406C129.564 210.021 130.158 209.828 130.83 209.828C130.997 209.828 131.176 209.839 131.369 209.859C131.562 209.88 131.731 209.909 131.877 209.945V212.898C131.721 212.852 131.505 212.81 131.229 212.773C130.952 212.737 130.7 212.719 130.471 212.719C129.981 212.719 129.544 212.826 129.158 213.039C128.778 213.247 128.476 213.539 128.252 213.914C128.033 214.289 127.924 214.721 127.924 215.211V222H124.596ZM138.461 222.234C137.247 222.234 136.198 221.977 135.313 221.461C134.432 220.94 133.753 220.216 133.273 219.289C132.794 218.357 132.555 217.276 132.555 216.047C132.555 214.807 132.794 213.724 133.273 212.797C133.753 211.865 134.432 211.141 135.313 210.625C136.198 210.104 137.247 209.844 138.461 209.844C139.674 209.844 140.721 210.104 141.602 210.625C142.487 211.141 143.169 211.865 143.648 212.797C144.128 213.724 144.367 214.807 144.367 216.047C144.367 217.276 144.128 218.357 143.648 219.289C143.169 220.216 142.487 220.94 141.602 221.461C140.721 221.977 139.674 222.234 138.461 222.234ZM138.477 219.656C139.029 219.656 139.49 219.5 139.859 219.188C140.229 218.87 140.508 218.437 140.695 217.891C140.888 217.344 140.984 216.721 140.984 216.023C140.984 215.326 140.888 214.703 140.695 214.156C140.508 213.609 140.229 213.177 139.859 212.859C139.49 212.542 139.029 212.383 138.477 212.383C137.919 212.383 137.451 212.542 137.07 212.859C136.695 213.177 136.411 213.609 136.219 214.156C136.031 214.703 135.938 215.326 135.938 216.023C135.938 216.721 136.031 217.344 136.219 217.891C136.411 218.437 136.695 218.87 137.07 219.188C137.451 219.5 137.919 219.656 138.477 219.656ZM146.531 222V210H149.758V212.094H149.883C150.102 211.349 150.469 210.786 150.984 210.406C151.5 210.021 152.094 209.828 152.766 209.828C152.932 209.828 153.112 209.839 153.305 209.859C153.497 209.88 153.667 209.909 153.813 209.945V212.898C153.656 212.852 153.44 212.81 153.164 212.773C152.888 212.737 152.635 212.719 152.406 212.719C151.917 212.719 151.479 212.826 151.094 213.039C150.714 213.247 150.411 213.539 150.188 213.914C149.969 214.289 149.859 214.721 149.859 215.211V222H146.531Z" fill="black"/>
</g>
<path d="M73.049 239.5H82.449V240.6H73.049V239.5ZM73.459 234.05H82.049V235.15H73.459V234.05ZM75.029 237.67H80.549V238.69H75.029V237.67ZM80.109 235.81H81.299V241.6C81.299 242.21 81.169 242.53 80.749 242.72C80.339 242.9 79.749 242.92 78.899 242.92C78.839 242.6 78.649 242.08 78.479 241.79C79.029 241.82 79.689 241.81 79.859 241.8C80.039 241.8 80.109 241.75 80.109 241.59V235.81ZM74.189 235.81H80.579V236.89H75.379V242.91H74.189V235.81ZM77.099 234.38H78.309V239.88H77.099V234.38ZM85.249 236.32H92.199V237.27H85.249V236.32ZM85.329 239.24H90.819V240.18H85.329V239.24ZM86.609 235.66H87.739V237.93H89.569V235.66H90.749V238.84H86.609V235.66ZM90.509 239.24H90.739L90.949 239.19L91.699 239.57C90.619 241.74 88.199 242.57 85.389 242.92C85.299 242.62 85.079 242.17 84.889 241.92C87.449 241.7 89.699 240.99 90.509 239.39V239.24ZM87.379 239.97C88.279 241.09 90.149 241.7 92.449 241.9C92.199 242.15 91.899 242.63 91.749 242.93C89.319 242.63 87.469 241.83 86.349 240.34L87.379 239.97ZM87.439 233.51H88.689V235.01H87.439V233.51ZM84.439 234.41H92.249V235.48H84.439V234.41ZM83.849 234.41H84.999V237.23C84.999 238.86 84.849 241.32 83.939 242.87C83.729 242.67 83.229 242.34 82.949 242.21C83.789 240.79 83.849 238.7 83.849 237.23V234.41ZM96.649 237.29H102.299V239.21H101.189V238.22H97.709V239.21H96.649V237.29ZM99.759 238.71H100.869V241.46C100.869 241.75 100.879 241.78 101.029 241.78C101.089 241.78 101.319 241.78 101.389 241.78C101.549 241.78 101.589 241.62 101.609 240.51C101.819 240.69 102.299 240.88 102.589 240.95C102.499 242.43 102.219 242.83 101.509 242.83C101.339 242.83 100.999 242.83 100.839 242.83C99.949 242.83 99.759 242.49 99.759 241.47V238.71ZM97.979 238.7H99.099C99.029 240.8 98.749 242.16 96.889 242.93C96.769 242.64 96.449 242.19 96.199 241.96C97.769 241.38 97.929 240.4 97.979 238.7ZM96.759 234.26H102.229V235.23H96.759V234.26ZM97.089 235.83H101.929V236.8H97.089V235.83ZM98.829 233.5H100.019V236.33H98.829V233.5ZM93.489 236.58H96.279V237.48H93.489V236.58ZM93.549 233.82H96.249V234.73H93.549V233.82ZM93.489 237.94H96.279V238.85H93.489V237.94ZM93.039 235.17H96.579V236.12H93.039V235.17ZM94.039 239.33H96.299V242.35H94.039V241.41H95.319V240.27H94.039V239.33ZM93.459 239.33H94.439V242.77H93.459V239.33ZM104.879 234.44C105.149 234.46 105.499 234.48 105.709 234.48C106.289 234.48 107.349 234.44 107.809 234.4C108.059 234.38 108.319 234.32 108.499 234.25L109.289 234.88C109.159 235.03 109.039 235.16 108.959 235.29C108.619 235.86 108.079 237.15 107.629 238.19C107.229 239.11 106.749 240.3 106.339 240.93C105.939 241.54 105.469 241.81 104.779 241.81C103.909 241.81 103.249 241.21 103.249 240.19C103.249 238.59 104.779 237.36 106.919 237.36C109.249 237.36 111.289 238.6 112.339 239.32L111.759 240.71C110.529 239.62 108.769 238.48 106.709 238.48C105.249 238.48 104.409 239.27 104.409 240C104.409 240.33 104.599 240.5 104.839 240.5C105.039 240.5 105.169 240.41 105.359 240.16C105.689 239.67 106.049 238.75 106.409 237.96C106.759 237.17 107.169 236.19 107.469 235.57C107.069 235.58 106.199 235.61 105.749 235.64C105.539 235.65 105.189 235.69 104.929 235.72L104.879 234.44ZM111.459 236.8C111.319 239.64 110.759 241.48 108.369 242.72L107.299 241.85C109.769 240.79 110.069 238.92 110.159 237.75C110.179 237.36 110.189 236.96 110.149 236.65L111.459 236.8ZM116.789 233.93H118.899V235.06H116.789V233.93ZM118.299 233.93H119.559C119.709 236.78 120.309 239.19 122.399 240.25C122.119 240.44 121.679 240.88 121.459 241.16C119.329 239.89 118.669 237.37 118.489 234.46H118.299V233.93ZM118.259 236.01L119.499 236.19C119.059 238.44 118.169 240.14 116.689 241.17C116.509 240.94 116.039 240.47 115.769 240.27C117.169 239.43 117.939 237.94 118.259 236.01ZM115.519 237.41V241.09H114.349V238.52H113.179V237.41H115.519ZM115.519 240.57C115.919 241.23 116.679 241.52 117.719 241.56C118.889 241.61 121.159 241.58 122.509 241.47C122.379 241.75 122.179 242.33 122.129 242.69C120.919 242.75 118.899 242.77 117.699 242.72C116.469 242.67 115.639 242.38 114.989 241.6C114.549 241.99 114.099 242.37 113.559 242.81L112.969 241.56C113.419 241.28 113.959 240.93 114.419 240.57H115.519ZM113.199 234.46L114.089 233.74C114.689 234.16 115.419 234.79 115.769 235.26L114.809 236.05C114.509 235.58 113.789 234.91 113.199 234.46ZM128.519 234.58C128.409 234.71 128.309 234.88 128.199 235.05C127.699 235.76 126.999 237.04 126.509 237.93C126.879 237.71 127.269 237.62 127.649 237.62C128.399 237.62 128.849 238.09 128.889 238.93C128.909 239.37 128.889 240.17 128.939 240.59C128.979 240.98 129.249 241.14 129.579 241.14C130.449 241.14 130.989 240.01 131.269 238.77L132.359 239.65C131.829 241.37 130.909 242.51 129.369 242.51C128.259 242.51 127.749 241.84 127.699 241.12C127.669 240.58 127.669 239.77 127.639 239.36C127.609 239.01 127.419 238.8 127.059 238.8C126.379 238.8 125.809 239.5 125.459 240.31C125.189 240.89 124.849 242.01 124.699 242.54L123.289 242.06C124.019 240.06 126.069 235.98 126.609 235.02C126.729 234.76 126.919 234.43 127.099 234.01L128.519 234.58ZM132.941 235.15C133.331 235.14 133.731 235.12 133.921 235.1C134.751 235.02 136.401 234.88 138.231 234.72C139.271 234.64 140.361 234.57 141.071 234.54L141.081 235.83C140.541 235.83 139.681 235.84 139.141 235.96C137.941 236.28 137.031 237.58 137.031 238.77C137.031 240.41 138.571 241.01 140.261 241.09L139.791 242.46C137.701 242.33 135.721 241.2 135.721 239.03C135.721 237.6 136.531 236.46 137.201 235.95C136.271 236.05 134.221 236.27 133.071 236.52L132.941 235.15ZM139.651 236.81C139.891 237.16 140.251 237.77 140.441 238.17L139.691 238.5C139.431 237.96 139.221 237.56 138.911 237.12L139.651 236.81ZM140.761 236.35C141.021 236.7 141.401 237.29 141.611 237.68L140.861 238.04C140.591 237.5 140.361 237.12 140.041 236.68L140.761 236.35ZM149.591 234.8C149.271 235.03 148.941 235.29 148.711 235.48C148.061 236 146.741 237.02 146.071 237.6C145.541 238.05 145.551 238.17 146.091 238.64C146.841 239.27 148.741 240.76 149.761 241.75L148.601 242.83C148.321 242.51 148.021 242.2 147.721 241.9C147.121 241.27 145.651 240.01 144.731 239.24C143.741 238.39 143.821 237.85 144.821 237.02C145.601 236.38 146.981 235.27 147.651 234.61C147.941 234.33 148.261 234 148.421 233.76L149.591 234.8ZM156.681 234.14C156.611 234.41 156.511 234.86 156.461 235.08C156.321 235.76 156.081 236.99 155.811 238C155.451 239.4 154.781 241.45 154.231 242.63L152.831 242.16C153.431 241.16 154.191 239.06 154.561 237.66C154.821 236.72 155.051 235.63 155.121 235.03C155.171 234.66 155.181 234.25 155.151 234.02L156.681 234.14ZM154.131 235.63C155.351 235.63 156.761 235.45 158.061 235.14V236.39C156.821 236.68 155.251 236.84 154.121 236.84C153.631 236.84 153.261 236.82 152.911 236.8L152.871 235.56C153.391 235.62 153.721 235.63 154.131 235.63ZM157.271 237.17C157.831 237.11 158.541 237.06 159.201 237.06C159.771 237.06 160.371 237.09 160.951 237.15L160.931 238.35C160.421 238.29 159.811 238.23 159.211 238.23C158.511 238.23 157.901 238.26 157.271 238.34V237.17ZM157.811 239.68C157.741 239.96 157.681 240.29 157.681 240.51C157.681 240.95 157.971 241.28 159.051 241.28C159.711 241.28 160.411 241.2 161.121 241.07L161.071 242.35C160.511 242.42 159.841 242.5 159.041 242.5C157.351 242.5 156.451 241.91 156.451 240.9C156.451 240.44 156.531 239.96 156.621 239.56L157.811 239.68ZM159.881 234.43C160.141 234.79 160.491 235.43 160.681 235.8L159.881 236.14C159.671 235.73 159.361 235.14 159.091 234.75L159.881 234.43ZM161.071 233.97C161.331 234.35 161.701 234.98 161.881 235.34L161.081 235.68C160.881 235.26 160.551 234.68 160.281 234.3L161.071 233.97ZM167.311 234.91C167.241 234.68 167.121 234.32 167.001 233.99L168.351 233.83C168.501 234.6 168.741 235.39 168.981 236.03C169.291 236.87 169.761 237.73 170.091 238.19C170.261 238.44 170.441 238.65 170.621 238.86L170.011 239.75C169.451 239.64 168.181 239.51 167.341 239.44L167.441 238.38C167.931 238.43 168.591 238.48 168.901 238.51C168.541 237.92 168.101 237.08 167.791 236.25C167.571 235.7 167.431 235.24 167.311 234.91ZM163.671 235.38C165.541 235.6 167.061 235.59 168.261 235.46C169.151 235.35 170.031 235.18 170.821 234.94L170.971 236.19C170.311 236.38 169.451 236.53 168.651 236.62C167.321 236.78 165.741 236.82 163.691 236.65L163.671 235.38ZM165.681 238.78C165.351 239.26 165.191 239.7 165.191 240.13C165.191 240.98 165.941 241.33 167.311 241.34C168.401 241.34 169.281 241.23 169.981 241.09L169.911 242.36C169.341 242.46 168.441 242.59 167.231 242.59C165.181 242.59 163.901 241.8 163.901 240.35C163.901 239.74 164.091 239.17 164.431 238.49L165.681 238.78ZM174.841 234.86C174.771 235.21 174.721 235.8 174.721 236.08C174.721 236.73 174.721 237.47 174.781 238.2C174.921 239.64 175.221 240.63 175.851 240.63C176.331 240.63 176.721 239.45 176.911 238.66L177.921 239.87C177.251 241.62 176.631 242.22 175.831 242.22C174.721 242.22 173.771 241.24 173.491 238.56C173.391 237.64 173.381 236.46 173.381 235.85C173.381 235.58 173.371 235.15 173.301 234.84L174.841 234.86ZM179.841 235.08C180.791 236.23 181.561 238.73 181.671 240.26L180.351 240.78C180.201 239.16 179.661 236.74 178.571 235.5L179.841 235.08Z" fill="black"/>
<defs>
<filter id="filter0_d_26_9" x="98.1855" y="178.781" width="59.627" height="51.4531" filterUnits="userSpaceOnUse" color-interpolation-filters="sRGB">
<feFlood flood-opacity="0" result="BackgroundImageFix"/>
<feColorMatrix in="SourceAlpha" type="matrix" values="0 0 0 0 0 0 0 0 0 0 0 0 0 0 0 0 0 0 127 0" result="hardAlpha"/>
<feOffset dy="4"/>
<feGaussianBlur stdDeviation="2"/>
<feComposite in2="hardAlpha" operator="out"/>
<feColorMatrix type="matrix" values="0 0 0 0 0 0 0 0 0 0 0 0 0 0 0 0 0 0 0.25 0"/>
<feBlend mode="normal" in2="BackgroundImageFix" result="effect1_dropShadow_26_9"/>
<feBlend mode="normal" in="SourceGraphic" in2="effect1_dropShadow_26_9" result="shape"/>
</filter>
</defs>
</svg>
